<?xml version="1.0" standalone="no"?><!DOCTYPE svg PUBLIC "-//W3C//DTD SVG 1.1//EN" "http://www.w3.org/Graphics/SVG/1.1/DTD/svg11.dtd"><svg t="1764214168669" class="icon" viewBox="0 0 1024 1024" version="1.1" xmlns="http://www.w3.org/2000/svg" p-id="2691" xmlns:xlink="http://www.w3.org/1999/xlink" width="200" height="200"><path d="M760.6784 951.4496H274.3808c-107.264 0-194.2016-86.9376-194.2016-194.2016V271.0016C80.1792 163.7376 167.1168 76.8 274.3808 76.8h486.2464c107.264 0 194.2016 86.9376 194.2016 194.2016v486.2464c0.0512 107.264-86.8864 194.2016-194.1504 194.2016z" fill="#F6648C" p-id="2692"></path><path d="M805.9392 295.0144h-81.3568v-21.1456c0-43.9296-36.864-79.6672-82.1248-79.6672H396.4416c-45.2608 0-82.1248 35.7376-82.1248 79.6672v21.1456H228.4032c-14.1312 0-25.6 11.4688-25.6 25.6s11.4688 25.6 25.6 25.6h577.536c14.1312 0 25.6-11.4688 25.6-25.6s-11.4688-25.6-25.6-25.6z m-440.4224-21.1456c0-15.6672 13.8752-28.4672 30.9248-28.4672h245.9648c17.0496 0 30.9248 12.7488 30.9248 28.4672v21.1456H365.5168v-21.1456zM740.7104 382.464c-14.1312 0-25.6 11.4688-25.6 25.6v331.8784c0 26.9824-21.2992 48.896-47.5136 48.896H365.1584c-26.2144 0-47.5136-21.9648-47.5136-48.896V408.064c0-14.1312-11.4688-25.6-25.6-25.6s-25.6 11.4688-25.6 25.6v331.8784c0 55.1936 44.288 100.096 98.7136 100.096h302.4384c54.4256 0 98.7136-44.9024 98.7136-100.096V408.064c0-14.1824-11.4176-25.6-25.6-25.6z" fill="#F7F8F8" p-id="2693"></path><path d="M463.6672 677.0176V470.9376c0-14.1312-11.4688-25.6-25.6-25.6s-25.6 11.4688-25.6 25.6v206.08c0 14.1312 11.4688 25.6 25.6 25.6s25.6-11.4688 25.6-25.6zM620.3392 677.0176V470.9376c0-14.1312-11.4688-25.6-25.6-25.6s-25.6 11.4688-25.6 25.6v206.08c0 14.1312 11.4688 25.6 25.6 25.6s25.6-11.4688 25.6-25.6z" fill="#F7F8F8" p-id="2694"></path></svg>