<?xml version="1.0" standalone="no"?><!DOCTYPE svg PUBLIC "-//W3C//DTD SVG 1.1//EN" "http://www.w3.org/Graphics/SVG/1.1/DTD/svg11.dtd"><svg t="1762234490896" class="icon" viewBox="0 0 1024 1024" version="1.1" xmlns="http://www.w3.org/2000/svg" p-id="8208" xmlns:xlink="http://www.w3.org/1999/xlink" width="200" height="200"><path d="M896 848c0 11.264-4.288 52.672-8.512 64-8.576 56.384 64 90.24 64 90.24s-106.688 48.96-196.288 0c-89.6-48.896-179.2-158.016-51.2-229.504 29.888-15.04 55.488-22.528 76.8-22.528 68.288 0 110.912 52.672 115.2 97.792z m-448-146.752l42.688 60.224c68.224 60.16 110.912 37.632 110.912 37.632-34.112 78.976 0 131.648 17.088 150.464A484.736 484.736 0 0 1 512 960.896c-72.512 0-136.512-11.328-200.512-37.632-4.288 0-4.288-3.776-4.288-3.776-29.888-18.816-17.088-41.408-8.512-52.672 12.8-15.04 17.024-30.08 17.024-48.896 0-64-81.024-116.672-183.424-116.672H102.4c-17.088 0-51.2 11.328-64-30.08 0-3.776 0-3.776-4.288-7.488 0-3.84-4.224-7.552-4.224-7.552-8.576-18.816-8.576-18.816-8.576-22.592A455.808 455.808 0 0 1 0 498.112c0-124.16 55.488-233.28 145.088-316.032C256 373.952 448 701.248 448 701.248z m448-300.992c0-33.856-29.888-60.16-68.288-60.16-38.4 0-68.224 26.304-68.224 60.16 0 33.92 29.824 60.224 68.224 60.224 38.4 0 68.288-26.304 68.288-60.16z m-128-158.016c0-26.304-25.6-48.896-55.488-48.896-29.824 0-55.424 22.592-55.424 48.896 0 26.368 25.6 48.96 55.424 48.96 29.888 0 55.488-22.592 55.488-48.96z m-183.488-90.24c0-15.104-17.024-30.08-34.112-30.08s-34.112 14.976-34.112 30.08c0 15.04 17.024 30.08 34.112 30.08s34.112-15.04 34.112-30.08zM1024 501.888c0 101.568-34.112 195.648-98.112 270.848-38.4-71.488-149.376-71.488-166.4-71.488 21.312-60.16-21.376-116.608-21.376-116.608l-422.4-496.64c64-22.592 132.288-37.632 200.576-37.632C797.888 46.72 1024 249.792 1024 501.888zM174.912 8.96c29.888 22.528 520.576 609.472 520.576 609.472 29.824 33.92 17.024 90.304-29.888 116.608l-12.8 7.552c-46.912 26.368-106.688 15.04-132.288-30.08l-12.8-22.592C435.2 565.824 140.8 72.96 123.712 39.104 115.2 16.512 128 1.472 149.312 1.472c8.576-3.776 17.088 0 25.6 7.552z" fill="#FF717E" p-id="8209"></path></svg>