<?xml version="1.0" standalone="no"?><!DOCTYPE svg PUBLIC "-//W3C//DTD SVG 1.1//EN" "http://www.w3.org/Graphics/SVG/1.1/DTD/svg11.dtd"><svg t="1762227584621" class="icon" viewBox="0 0 1024 1024" version="1.1" xmlns="http://www.w3.org/2000/svg" p-id="20349" xmlns:xlink="http://www.w3.org/1999/xlink" width="200" height="200"><path d="M409.09824 937.35424c-15.15008 0-30.976-2.52416-49.79712-7.94624-29.30688-8.43776-54.62016-25.89184-79.66208-54.92224-24.10496-27.93984-45.83424-60.65152-70.45632-106.0608a1601.13664 1601.13664 0 0 1-12.26752-23.24992l-0.96256-1.8432c1.72544 0.31744 3.45088 0.57344 5.20704 0.73728 4.35712 0.38912 8.73984 0.5888 13.02528 0.5888 17.09568 0 33.83808-3.13344 49.7664-9.3184 0.3072-0.11776 0.55296-0.2048 0.75264-0.27136 0.12288 0.21504 0.27648 0.50688 0.4608 0.88064l4.08576 8.46336c9.35424 19.38944 19.0208 39.43936 29.38368 58.77248 9.472 17.68448 21.76512 32.32256 36.5312 43.50976 23.54176 17.82784 49.88928 27.25376 76.19584 27.25376 22.32832-0.00512 44.288-6.656 65.26464-19.77344 25.76896-16.11264 48.42496-36.5568 69.27872-62.4896 0.0512-0.06144 0.09728-0.11264 0.13312-0.16896l0.16896 0.1024c35.36384 21.89824 64.14848 35.39968 93.33248 43.78624 17.38752 4.99712 31.69792 7.3216 45.05088 7.3216 8.96512 0 17.664-1.1008 25.86112-3.26144 35.21536-9.28256 57.48224-30.49472 66.16064-63.04256 6.17984-23.20384-1.16736-45.2096-7.22944-59.74528-4.06016-9.72288-9.51296-20.80256-19.2-29.20448-3.19488-2.78016-7.07072-5.95968-11.53536-8.45824a49390.45888 49390.45888 0 0 0-136.46848-75.9296 35.90144 35.90144 0 0 1-12.04224-10.624c14.06464-14.35136 23.29088-30.94528 27.62752-49.55136 1.24416 0.29696 2.49344 0.55296 3.74272 0.81408 4.08064 0.84992 7.936 1.64864 10.91072 3.3536 60.63616 34.72384 107.1872 61.68576 150.92736 87.41888 53.44768 31.44704 79.72864 101.06368 58.58304 155.19232-26.86976 68.79232-73.82528 110.208-139.55072 123.12064-10.2144 2.00704-20.55168 3.0208-30.72512 3.0208-29.20448 0-58.67008-8.37632-87.58272-24.88832-8.54016-4.87936-16.8704-10.15296-24.6016-15.12448-2.16576-1.39264-4.22912-2.06848-6.30784-2.06848-2.05824 0-4.11136 0.6656-6.272 2.02752l-8.47872 5.39136c-16.55296 10.51648-33.66912 21.39648-50.71872 31.67744-19.23584 11.61728-37.41184 18.93888-55.57248 22.38976a124.16 124.16 0 0 1-23.01952 2.11968zM871.15264 686.39744c-7.41376-20.31104-20.46976-38.43584-40.36608-56.15104a2630.05696 2630.05696 0 0 1 13.78816-19.91168c10.11712-14.52032 20.5824-29.53216 30.17216-44.81024 13.2864-21.15584 20.24448-43.3152 20.68992-65.87392 0.96256-49.87392-20.0448-87.42912-62.43328-111.616-25.216-14.3872-53.86752-24.45312-87.58784-30.7712l-2.0736-0.37376 0.0256-0.99328c1.21856-32.23552 1.1264-70.29248-8.85248-108.1856-7.06048-26.8288-17.67936-46.57152-33.41824-62.12096-15.81056-15.616-40.69888-25.70752-63.4112-25.70752-12.0064 0-23.12192 2.70336-33.024 8.0384-13.8752 7.46496-26.00448 18.05312-37.08416 32.36352-11.392 14.72-16.82944 31.04768-16.64 49.92 0.33792 33.67936 0.32256 67.9424 0.30208 101.07904-0.01024 16-0.02048 31.99488 0.01024 47.99488 0.01024 5.88288-1.10592 11.21792-3.2512 15.63136a780.0832 780.0832 0 0 1-6.94784-1.1776c-7.9872-1.3824-15.52384-2.68288-23.3472-3.072a68.9408 68.9408 0 0 0-3.41504-0.08704c-6.99904 0-13.96224 0.9984-20.69504 1.96608l-3.85536 0.54272c-2.58048-6.35904-2.44736-13.28128-2.304-20.60288l0.82432-41.7536c0.82944-41.64096 1.65888-83.28704 2.304-124.928 0.92672-59.83232 47.104-115.30752 105.12896-126.30016 9.83552-1.86368 19.95776-2.0992 27.68384-2.0992 4.25472 0 8.50432 0.08192 12.7232 0.16896 29.8496 0.6144 54.97856 6.21568 76.83584 17.12128 59.3664 29.62944 92.32384 77.78816 97.96096 143.15008 0.95744 11.05408 0.39936 22.6048-0.13312 33.77664-0.19456 4.06528-0.38912 8.13056-0.52224 12.1856-0.16896 5.5808 1.85344 9.23136 6.56896 11.83232 5.59104 3.09248 11.19744 6.15936 16.7936 9.22624 17.55648 9.61024 35.70688 19.54304 53.07392 30.0288 26.04032 15.7184 44.79488 36.24448 55.74144 61.0048 18.90816 42.77248 20.56704 84.48 5.04832 127.49312-11.88352 32.95232-28.1088 66.0992-49.60256 101.3504-6.74816 11.05408-13.97248 22.12864-20.95616 32.83968-1.92 2.92864-3.84 5.87264-5.75488 8.82176zM214.60992 700.98944c-37.16096 0-72.0896-14.30016-95.8208-39.22432-14.75072-15.488-24.4224-35.04128-32.32256-52.1472-22.29248-48.26112-23.22944-97.10592-2.78528-145.18272 14.592-34.31936 40.27392-61.88544 76.3392-81.92512a473.32864 473.32864 0 0 1 24.86784-12.89216c6.6816-3.20512 7.31648-8.47872 7.2192-12.16l-0.26112-9.25184c-0.54272-19.31264-1.11104-39.29088-1.16736-58.9056-0.0768-24.39168 3.44064-45.11744 10.74176-63.36 7.92576-19.80416 20.92032-37.33504 42.14272-56.85248 22.14912-20.36736 49.98144-32.82944 87.59296-39.20896 26.60352-4.51584 55.19872-6.71232 87.41888-6.71232 17.51552 0 36.76672 0.65024 58.84928 1.99168 2.87744 0.17408 5.75488 0.36352 8.69888 0.55808-13.91616 16.67072-23.10656 37.02272-28.49792 62.97088l-20.79744-2.19648c-17.664-1.85344-35.93216-3.77344-54.1184-3.77344-6.82496 0-13.16864 0.26112-19.38432 0.79872-36.49024 3.13856-66.9952 18.80576-90.67008 46.56128-16.48128 19.31776-24.91904 43.27936-25.78432 73.23648-0.88064 30.58176 4.92032 62.49472 17.7408 97.56672l0.06656 0.18944-0.22016 0.11776c-35.3536 18.304-60.76928 35.16928-82.41152 54.68672-21.0944 19.03104-34.4064 37.36576-41.88672 57.7024-8.77568 23.84384-7.2704 48.6912 4.47488 73.86112a61.056 61.056 0 0 0 18.36032 22.82496c18.81088 14.44864 40.41728 21.78048 64.21504 21.78048 4.80256 0 9.7536-0.3072 14.73024-0.896 8.0384-0.95744 15.41632-4.39296 20.19328-7.1168 36.64384-20.8896 73.76384-42.34752 109.66016-63.09376l25.68192-14.83776c3.99872-2.30912 7.86944-3.73248 11.9296-4.36736 4.98688 20.54144 14.65344 37.63712 29.42464 52.02432-2.41664 2.99008-5.57056 5.51936-9.69216 7.79776l-107.8784 59.55584c-14.46912 7.9872-28.93312 15.96928-43.38176 23.99744-18.7136 10.38336-40.58624 15.87712-63.25248 15.87712l-0.01536 0.00512z" p-id="20350"></path><path d="M504.86272 427.12064c-48.81408 4.73088-85.07904 47.86688-81.48992 96.88576 3.21024 43.8784 37.69344 79.24224 81.51552 83.45088 1.57184 0.15872 3.89632-0.32256 4.7872-1.39776 11.01824-13.2864 21.05344-27.28448 26.55232-43.84256 1.88928-5.68832 2.35008-11.89888 3.05152-17.92 0.37888-3.2512-1.26464-4.7872-5.01248-4.61824-12.18048 0.5376-24.3712 0.73728-36.56192 0.93696-2.28352 0.03584-4.87424 1.01888-6.4256-2.18624-9.84576-20.33152-12.89728-41.41568-7.10144-63.42656 4.7104-17.88928 13.68576-33.51552 26.88-47.90272-2.66752 0-4.44416-0.14336-6.1952 0.02048z" p-id="20351"></path><path d="M523.78624 607.1552c0.7168-0.03584 1.96608 0.0256 3.16416-0.16384 22.51776-3.5584 41.34912-13.8496 56.11008-31.28832 24.60672-29.0816 28.54912-70.30784 9.3184-103.36768-14.40768-24.79616-36.08064-39.72608-64.54784-44.34432-1.52576-0.24576-3.73248 0.17408-4.79232 1.16736-14.0288 13.0304-23.99744 28.65664-28.71808 47.30368-1.46432 5.78048-1.88416 11.82208-2.8672 18.304h36.53632c10.24 0 10.16832 0.03072 14.2592 9.69728 10.51136 24.86784 8.16128 49.42336-2.47808 73.41568-4.46464 10.05056-10.53184 19.39456-15.98464 29.27616z" p-id="20352"></path></svg>