<?xml version="1.0" standalone="no"?><!DOCTYPE svg PUBLIC "-//W3C//DTD SVG 1.1//EN" "http://www.w3.org/Graphics/SVG/1.1/DTD/svg11.dtd"><svg t="1762164677846" class="icon" viewBox="0 0 1024 1024" version="1.1" xmlns="http://www.w3.org/2000/svg" p-id="8431" xmlns:xlink="http://www.w3.org/1999/xlink" width="200" height="200"><path d="M431.786667 894.293333v59.733334h-8.533334v-59.733334h-1.706666c-13.653333 20.48-34.133333 37.546667-64.853334 49.493334l-5.12-8.533334c27.306667-10.24 47.786667-25.6 61.44-42.666666h-47.786666v-8.533334h59.733333v-22.186666H358.4V853.333333h66.56v-17.066666h8.533333v17.066666h66.56v8.533334h-66.56v22.186666H494.933333v8.533334h-51.2c11.946667 15.36 32.426667 29.013333 63.146667 40.96l-6.826667 8.533333c-30.72-15.36-52.906667-30.72-64.853333-49.493333h-3.413333z m-76.8-78.506666h40.96v-17.066667h8.533333v17.066667h47.786667v-17.066667h8.533333v17.066667h40.96v8.533333H460.8v17.066667h-8.533333v-17.066667h-47.786667v17.066667h-8.533333v-17.066667h-40.96v-8.533333zM599.04 844.8c-8.533333 3.413333-17.066667 5.12-27.306667 6.826667v20.48h30.72v8.533333h-30.72v8.533333c11.946667 6.826667 23.893333 15.36 34.133334 23.893334l-5.12 6.826666c-10.24-10.24-20.48-18.773333-29.013334-23.893333v54.613333H563.2v-59.733333c-8.533333 13.653333-20.48 27.306667-35.84 39.253333l-3.413333-8.533333c18.773333-11.946667 30.72-25.6 39.253333-42.666667h-34.133333V870.4h34.133333v-18.773333c-8.533333 1.706667-18.773333 1.706667-30.72 3.413333l-3.413333-5.12c25.6-1.706667 47.786667-5.12 66.56-11.946667l3.413333 6.826667z m-73.386667-32.426667h40.96v-13.653333h8.533334v13.653333h47.786666v-13.653333h8.533334v13.653333h39.253333v8.533334H631.466667v15.36h-8.533334v-13.653334h-47.786666v11.946667h-8.533334v-11.946667h-40.96v-10.24z m92.16 37.546667h8.533334v76.8h-8.533334v-76.8z m8.533334 104.106667l-1.706667-8.533334h20.48c5.12 0 8.533333-3.413333 8.533333-8.533333v-98.986667h8.533334V938.666667c0 10.24-5.12 15.36-13.653334 15.36h-22.186666z" p-id="8432"></path><path d="M406.186667 703.146667c-5.12 0-11.946667 0-15.36-1.706667-25.6-5.12-34.133333-30.72-37.546667-47.786667-5.12 1.706667-11.946667 1.706667-18.773333 1.706667-8.533333 0-22.186667-1.706667-32.426667-11.946667-23.893333-20.48-29.013333-63.146667-15.36-110.933333 15.36-46.08 56.32-75.093333 76.8-85.333333 17.066667-8.533333 54.613333-17.066667 76.8-17.066667 11.946667 0 22.186667 3.413333 27.306667 8.533333 6.826667 10.24 5.12 22.186667 3.413333 35.84v3.413334c5.12-3.413333 13.653333-10.24 17.066667-11.946667 8.533333-6.826667 13.653333-10.24 17.066666-10.24h1.706667c20.48 0 27.306667 27.306667 29.013333 35.84 5.12 25.6 13.653333 100.693333-17.066666 148.48-27.306667 44.373333-76.8 63.146667-112.64 63.146667z m-30.72-85.333334v18.773334s1.706667 35.84 20.48 40.96c3.413333 0 6.826667 1.706667 10.24 1.706666 29.013333 0 69.973333-17.066667 90.453333-49.493333 25.6-40.96 18.773333-110.933333 15.36-131.413333-1.706667-8.533333-3.413333-13.653333-5.12-15.36-1.706667 1.706667-3.413333 3.413333-5.12 3.413333-15.36 11.946667-29.013333 22.186667-39.253333 22.186667-1.706667 0-5.12 0-8.533334-1.706667-11.946667-5.12-10.24-20.48-8.533333-34.133333 0-5.12 1.706667-11.946667 1.706667-15.36h-6.826667c-18.773333 0-51.2 6.826667-66.56 13.653333-18.773333 10.24-52.906667 35.84-63.146667 71.68-11.946667 35.84-8.533333 71.68 6.826667 85.333333 5.12 5.12 11.946667 5.12 17.066667 5.12 11.946667 0 22.186667-5.12 22.186666-5.12l18.773334-10.24z" p-id="8433"></path><path d="M653.653333 660.48c-46.08 0-98.986667-59.733333-114.346666-100.693333-15.36-40.96-8.533333-122.88 10.24-131.413334 10.24-5.12 18.773333 1.706667 27.306666 6.826667-3.413333-11.946667-6.826667-27.306667 8.533334-35.84 5.12-3.413333 11.946667-5.12 23.893333-5.12 40.96 0 128 22.186667 160.426667 51.2 32.426667 27.306667 49.493333 88.746667 23.893333 131.413333-11.946667 20.48-34.133333 30.72-64.853333 30.72H716.8c-1.706667 15.36-11.946667 35.84-42.666667 49.493334-8.533333 3.413333-15.36 3.413333-20.48 3.413333z m-95.573333-206.506667c-5.12 17.066667-10.24 64.853333 1.706667 97.28 13.653333 37.546667 61.44 85.333333 92.16 85.333334 3.413333 0 6.826667 0 11.946666-1.706667 32.426667-15.36 29.013333-39.253333 29.013334-39.253333l-3.413334-17.066667 17.066667 3.413333s47.786667 10.24 64.853333-17.066666c18.773333-30.72 3.413333-80.213333-18.773333-100.693334-27.306667-25.6-107.52-46.08-145.066667-46.08-8.533333 0-10.24 1.706667-10.24 1.706667-1.706667 1.706667 1.706667 11.946667 3.413334 17.066667 3.413333 8.533333 10.24 23.893333-3.413334 30.72-1.706667 0-5.12 1.706667-8.533333 1.706666-8.533333 0-17.066667-5.12-23.893333-10.24-1.706667-1.706667-3.413333-3.413333-6.826667-5.12z" p-id="8434"></path><path d="M680.96 402.773333c-30.72 0-93.866667-5.12-107.52-22.186666-11.946667-15.36-1.706667-30.72 8.533333-40.96-10.24 1.706667-20.48 1.706667-27.306666-3.413334-17.066667-13.653333 17.066667-75.093333 39.253333-110.933333 32.426667-52.906667 68.266667-78.506667 105.813333-78.506667 13.653333 0 27.306667 3.413333 40.96 10.24 27.306667 13.653333 30.72 42.666667 27.306667 63.146667 18.773333 6.826667 56.32 22.186667 61.44 58.026667 8.533333 56.32-34.133333 100.693333-76.8 117.76-17.066667 3.413333-42.666667 6.826667-71.68 6.826666zM597.333333 312.32c10.24 0 15.36 3.413333 17.066667 6.826667 10.24 10.24-3.413333 23.893333-10.24 30.72-3.413333 3.413333-11.946667 11.946667-13.653333 15.36 5.12 3.413333 39.253333 13.653333 88.746666 13.653333 25.6 0 49.493333-3.413333 63.146667-8.533333 34.133333-13.653333 68.266667-47.786667 63.146667-90.453334-3.413333-30.72-52.906667-40.96-52.906667-40.96l-13.653333-1.706666 5.12-13.653334c0-1.706667 10.24-34.133333-13.653334-46.08-39.253333-20.48-78.506667 0-114.346666 59.733334-20.48 32.426667-34.133333 63.146667-39.253334 78.506666 1.706667 0 3.413333 0 5.12-1.706666 5.12-1.706667 10.24-1.706667 15.36-1.706667z" p-id="8435"></path><path d="M517.12 315.733333c-15.36 0-23.893333-13.653333-29.013333-25.6-1.706667 10.24-5.12 18.773333-11.946667 22.186667-3.413333 1.706667-6.826667 1.706667-8.533333 1.706667-18.773333 0-63.146667-34.133333-90.453334-68.266667-39.253333-49.493333-40.96-100.693333-5.12-133.12 22.186667-22.186667 54.613333-23.893333 69.973334-22.186667 10.24-13.653333 34.133333-44.373333 68.266666-44.373333 5.12 0 8.533333 0 13.653334 1.706667 56.32 13.653333 81.92 68.266667 81.92 114.346666 0 49.493333-52.906667 146.773333-81.92 155.306667-3.413333-1.706667-5.12-1.706667-6.826667-1.706667z m-34.133333-61.44h1.706666c11.946667 0 17.066667 10.24 22.186667 22.186667 1.706667 5.12 6.826667 15.36 10.24 17.066667 15.36-5.12 63.146667-87.04 63.146667-131.413334 0-35.84-18.773333-78.506667-63.146667-90.453333-1.706667 0-5.12-1.706667-6.826667-1.706667-23.893333 0-46.08 29.013333-51.2 39.253334l-5.12 6.826666-8.533333-1.706666s-5.12-1.706667-11.946667-1.706667c-13.653333 0-32.426667 3.413333-46.08 15.36-37.546667 34.133333-6.826667 81.92 6.826667 100.693333 22.186667 29.013333 54.613333 51.2 66.56 58.026667 0-1.706667 1.706667-5.12 1.706667-6.826667 3.413333-11.946667 5.12-23.893333 17.066666-27.306666l3.413334 1.706666z" p-id="8436"></path><path d="M295.253333 471.04c-49.493333 0-88.746667-22.186667-98.986666-56.32-10.24-32.426667 13.653333-61.44 25.6-73.386667-6.826667-15.36-15.36-46.08 5.12-75.093333 13.653333-22.186667 39.253333-32.426667 69.973333-32.426667 23.893333 0 51.2 6.826667 75.093333 18.773334 42.666667 20.48 92.16 68.266667 87.04 93.866666-3.413333 20.48-27.306667 23.893333-44.373333 25.6h-3.413333c3.413333 1.706667 8.533333 5.12 11.946666 6.826667 13.653333 6.826667 27.306667 15.36 27.306667 29.013333 0 22.186667-34.133333 34.133333-112.64 58.026667-11.946667 3.413333-27.306667 5.12-42.666667 5.12z m1.706667-215.04c-23.893333 0-40.96 6.826667-51.2 22.186667-18.773333 27.306667 0 58.026667 0 58.026666l5.12 8.533334-8.533333 6.826666s-34.133333 27.306667-25.6 52.906667c8.533333 27.306667 44.373333 40.96 76.8 40.96 13.653333 0 25.6-1.706667 35.84-5.12 25.6-6.826667 81.92-23.893333 93.866666-34.133333-3.413333-1.706667-8.533333-5.12-13.653333-8.533334-13.653333-8.533333-34.133333-18.773333-29.013333-37.546666 3.413333-11.946667 15.36-13.653333 29.013333-15.36 5.12 0 22.186667-3.413333 23.893333-6.826667 0-8.533333-29.013333-46.08-73.386666-68.266667-18.773333-8.533333-42.666667-13.653333-63.146667-13.653333z" p-id="8437"></path></svg>